<svg width="475" height="336" viewBox="0 0 475 336" fill="none" xmlns="http://www.w3.org/2000/svg">
<path d="M0 155.55L49.92 125.76L99.84 155.55L74.88 170.45L49.92 155.55L24.96 170.45L0 155.55Z" fill="#5180E2"/>
<path d="M0 155.55V215.13L24.96 230.03V200.24L49.92 215.13V185.34L0 155.55Z" fill="#4351D9"/>
<path d="M74.88 200.24L99.84 185.34V215.13L74.88 230.03V200.24Z" fill="#59CFCF"/>
<path d="M136.7 155.58H173.45V166.51H149.79V179.69H172.09V190.53H149.79V213.34H136.7V155.58V155.58Z" fill="#1E2142"/>
<path d="M238.37 210.52C233.98 208.03 230.57 204.54 228.14 200.03C225.71 195.52 224.5 190.35 224.5 184.51C224.5 178.67 225.7 173.41 228.1 168.9C230.5 164.39 233.89 160.89 238.28 158.41C242.67 155.92 247.76 154.68 253.55 154.68C259.34 154.68 264.35 155.91 268.74 158.37C273.13 160.83 276.52 164.28 278.92 168.73C281.32 173.18 282.52 178.33 282.52 184.17C282.52 190.01 281.32 195.37 278.92 199.91C276.52 204.45 273.13 207.98 268.74 210.49C264.35 213 259.29 214.26 253.55 214.26C247.81 214.26 242.75 213.02 238.36 210.53L238.37 210.52ZM265.1 198.12C268 194.71 269.45 190.17 269.45 184.5C269.45 180.8 268.79 177.52 267.47 174.66C266.15 171.8 264.28 169.6 261.85 168.07C259.42 166.54 256.66 165.77 253.56 165.77C250.46 165.77 247.69 166.54 245.26 168.07C242.83 169.6 240.96 171.8 239.64 174.66C238.32 177.52 237.66 180.8 237.66 184.5C237.66 188.2 238.32 191.47 239.64 194.3C240.96 197.13 242.81 199.33 245.21 200.89C247.61 202.45 250.39 203.23 253.55 203.23C258.35 203.23 262.2 201.53 265.09 198.11L265.1 198.12Z" fill="#1E2142"/>
<path d="M288.72 155.58H303.62L327.81 196.08V155.58H339.47V213.34H324.75L300.38 172.58V213.34H288.72V155.58V155.58Z" fill="#1E2142"/>
<path d="M361.97 166.51H345.53V155.58H391.4V166.51H375.15V213.34H361.97V166.51Z" fill="#1E2142"/>
<path d="M396.84 155.58H409.93V202.41H431.6V213.34H396.83V155.58H396.84Z" fill="#1E2142"/>
<path d="M437.04 155.58H473.61V166.51H449.95V178.04H472.25V188.62H449.95V202.41H473.61V213.34H437.04V155.58V155.58Z" fill="#1E2142"/>
<path d="M207.33 189.19L223.76 213.39C223.18 212.53 222.6 211.67 222.02 210.82C217.77 204.54 213.51 198.26 209.24 191.99" fill="#1E2142"/>
<path d="M198.84 195.17L210.4 213.38L198.69 194.91C198.74 195 198.79 195.08 198.84 195.16V195.17Z" fill="#1E2142"/>
<path d="M198.69 194.92C198.4 194.42 198.12 193.97 197.84 193.58L198.69 194.92Z" fill="#1E2142"/>
<path d="M207.33 189.19C211.36 188.27 214.51 186.31 216.77 183.34C219.03 180.36 220.16 176.74 220.16 172.46C220.16 167.43 218.47 163.43 215.1 160.45C211.73 157.47 206.61 155.87 199.75 155.64C197.94 155.58 194.54 155.55 189.55 155.55C184.56 155.55 181.24 155.58 179.44 155.64V213.4H191.99V190.85C193.74 190.85 195.04 191.1 195.92 191.59C196.51 191.93 197.16 192.6 197.85 193.59C198.13 193.99 198.41 194.43 198.7 194.93L210.41 213.4H223.77L207.34 189.2L207.33 189.19ZM191.98 181.21V165.77H198.3C201.31 165.77 203.6 166.38 205.16 167.59C206.72 168.8 207.51 170.57 207.51 172.88C207.51 175.43 206.62 177.45 204.85 178.95C203.07 180.45 200.65 181.2 197.58 181.2H191.98V181.21Z" fill="#1E2142"/>
<path d="M139.18 135.622V136.316H136.903V143.83H136.148V136.316H133.883V135.622H139.18ZM145.329 135.622H146.084V143.83H145.329V139.994H141.091V143.83H140.335V135.622H141.091V139.3H145.329V135.622ZM148.785 143.136H152.476V143.83H148.03V135.622H152.403V136.316H148.785V139.385H151.976V140.079H148.785V143.136ZM157.705 143.136H161.396V143.83H156.95V135.622H161.322V136.316H157.705V139.385H160.896V140.079H157.705V143.136ZM164.248 140.883H167.427L167.244 140.359L165.856 136.255C165.75 136.58 165.275 137.952 164.431 140.371L164.248 140.883ZM168.425 143.83L167.646 141.553H164.017L163.225 143.83H162.409L165.308 135.622H166.404L169.241 143.83H168.425ZM174.852 135.914V136.754C174.658 136.624 174.402 136.515 174.085 136.425C173.768 136.336 173.46 136.291 173.16 136.291C172.616 136.291 172.181 136.421 171.856 136.681C171.532 136.933 171.369 137.27 171.369 137.692C171.369 137.911 171.41 138.106 171.491 138.277C171.58 138.447 171.727 138.605 171.93 138.752C172.132 138.89 172.307 138.999 172.453 139.08C172.607 139.153 172.839 139.255 173.147 139.385C173.432 139.507 173.647 139.604 173.793 139.677C173.939 139.742 174.126 139.848 174.353 139.994C174.58 140.14 174.751 140.286 174.865 140.432C174.986 140.57 175.092 140.753 175.181 140.98C175.279 141.199 175.327 141.443 175.327 141.711C175.327 142.425 175.088 142.973 174.609 143.355C174.13 143.729 173.517 143.915 172.77 143.915C171.925 143.915 171.207 143.737 170.614 143.379V142.539C170.858 142.726 171.17 142.88 171.552 143.002C171.942 143.124 172.335 143.185 172.733 143.185C173.31 143.185 173.756 143.059 174.073 142.807C174.398 142.555 174.56 142.194 174.56 141.723C174.56 141.366 174.438 141.078 174.195 140.858C173.951 140.631 173.598 140.416 173.135 140.213C173.07 140.18 172.928 140.12 172.709 140.03C172.49 139.933 172.335 139.864 172.246 139.823C172.157 139.783 172.019 139.714 171.832 139.616C171.645 139.519 171.507 139.434 171.418 139.36C171.337 139.287 171.231 139.19 171.101 139.068C170.971 138.946 170.878 138.825 170.821 138.703C170.764 138.581 170.712 138.439 170.663 138.277C170.614 138.106 170.59 137.927 170.59 137.741C170.59 137.051 170.837 136.515 171.333 136.133C171.828 135.743 172.433 135.549 173.147 135.549C173.829 135.549 174.398 135.67 174.852 135.914ZM177.158 143.83V135.622H177.913V143.83H177.158ZM180.683 143.136H184.373V143.83H179.928V135.622H184.3V136.316H180.683V139.385H183.874V140.079H180.683V143.136ZM190.076 135.914V136.754C189.881 136.624 189.625 136.515 189.308 136.425C188.992 136.336 188.683 136.291 188.383 136.291C187.839 136.291 187.405 136.421 187.08 136.681C186.755 136.933 186.593 137.27 186.593 137.692C186.593 137.911 186.633 138.106 186.714 138.277C186.804 138.447 186.95 138.605 187.153 138.752C187.356 138.89 187.53 138.999 187.677 139.08C187.831 139.153 188.062 139.255 188.371 139.385C188.655 139.507 188.87 139.604 189.016 139.677C189.162 139.742 189.349 139.848 189.576 139.994C189.804 140.14 189.974 140.286 190.088 140.432C190.21 140.57 190.315 140.753 190.405 140.98C190.502 141.199 190.551 141.443 190.551 141.711C190.551 142.425 190.311 142.973 189.832 143.355C189.353 143.729 188.74 143.915 187.993 143.915C187.149 143.915 186.43 143.737 185.838 143.379V142.539C186.081 142.726 186.394 142.88 186.775 143.002C187.165 143.124 187.559 143.185 187.957 143.185C188.533 143.185 188.98 143.059 189.296 142.807C189.621 142.555 189.783 142.194 189.783 141.723C189.783 141.366 189.662 141.078 189.418 140.858C189.175 140.631 188.821 140.416 188.359 140.213C188.294 140.18 188.151 140.12 187.932 140.03C187.713 139.933 187.559 139.864 187.469 139.823C187.38 139.783 187.242 139.714 187.055 139.616C186.869 139.519 186.731 139.434 186.641 139.36C186.56 139.287 186.455 139.19 186.325 139.068C186.195 138.946 186.101 138.825 186.045 138.703C185.988 138.581 185.935 138.439 185.886 138.277C185.838 138.106 185.813 137.927 185.813 137.741C185.813 137.051 186.061 136.515 186.556 136.133C187.051 135.743 187.656 135.549 188.371 135.549C189.053 135.549 189.621 135.67 190.076 135.914ZM196.827 135.622V136.316H194.549V143.83H193.794V136.316H191.529V135.622H196.827ZM200.871 143.83L201.443 135.622H202.478L203.55 138.63L204.999 142.807C205.559 141.264 206.071 139.872 206.534 138.63L207.654 135.622H208.689L209.383 143.83H208.628L208.348 140.578L208.019 136.608C207.532 137.964 207.049 139.287 206.57 140.578L205.438 143.623H204.549L203.477 140.578L202.113 136.693C202.04 137.919 201.954 139.214 201.857 140.578L201.626 143.83H200.871ZM216.333 140.749V135.622H217.088V140.724C217.088 141.78 216.833 142.58 216.321 143.124C215.81 143.66 215.087 143.927 214.153 143.927C213.236 143.927 212.521 143.664 212.01 143.136C211.507 142.608 211.255 141.837 211.255 140.822V135.622H212.01V140.81C212.01 141.63 212.201 142.235 212.582 142.624C212.972 143.006 213.496 143.197 214.153 143.197C215.607 143.197 216.333 142.381 216.333 140.749ZM219.788 143.136H223.405V143.83H219.033V135.622H219.788V143.136ZM229.307 135.622V136.316H227.03V143.83H226.275V136.316H224.01V135.622H229.307ZM230.523 143.83V135.622H231.278V143.83H230.523ZM236.998 140.042H238.435C239.076 140.042 239.584 139.872 239.957 139.531C240.339 139.19 240.529 138.764 240.529 138.252C240.529 137.651 240.335 137.176 239.945 136.827C239.555 136.47 239.007 136.291 238.301 136.291H236.998V140.042ZM236.242 135.622H238.215C239.173 135.622 239.925 135.865 240.468 136.352C241.021 136.831 241.297 137.465 241.297 138.252C241.297 138.934 241.029 139.515 240.493 139.994C239.965 140.473 239.251 140.712 238.349 140.712H236.998V143.83H236.242V135.622ZM243.575 143.136H247.192V143.83H242.819V135.622H243.575V143.136ZM249.915 140.883H253.094L252.911 140.359L251.523 136.255C251.417 136.58 250.942 137.952 250.098 140.371L249.915 140.883ZM254.092 143.83L253.313 141.553H249.684L248.892 143.83H248.076L250.975 135.622H252.071L254.908 143.83H254.092ZM260.848 135.622V136.316H258.571V143.83H257.816V136.316H255.55V135.622H260.848ZM266.375 136.316H262.758V139.446H265.949V140.14H262.758V143.83H262.003V135.622H266.375V136.316ZM267.537 139.689C267.537 138.398 267.858 137.371 268.499 136.608C269.149 135.837 270.025 135.451 271.13 135.451C272.266 135.451 273.151 135.833 273.785 136.596C274.418 137.351 274.735 138.382 274.735 139.689C274.735 140.988 274.414 142.019 273.772 142.783C273.131 143.546 272.258 143.927 271.154 143.927C270.066 143.927 269.189 143.542 268.523 142.77C267.866 141.999 267.537 140.972 267.537 139.689ZM268.316 139.689C268.316 140.769 268.572 141.626 269.084 142.259C269.603 142.884 270.293 143.197 271.154 143.197C272.047 143.197 272.737 142.888 273.224 142.271C273.711 141.646 273.955 140.785 273.955 139.689C273.955 138.585 273.707 137.724 273.212 137.107C272.725 136.49 272.031 136.182 271.13 136.182C270.253 136.182 269.563 136.494 269.059 137.12C268.564 137.737 268.316 138.593 268.316 139.689ZM277.078 139.823H278.405C279.006 139.823 279.469 139.657 279.794 139.324C280.118 138.991 280.281 138.577 280.281 138.082C280.281 136.888 279.607 136.291 278.259 136.291H277.078V139.823ZM281.511 143.83H280.61L278.551 140.493H278.32H277.078V143.83H276.323V135.622H278.174C279.132 135.622 279.846 135.841 280.317 136.279C280.796 136.71 281.036 137.323 281.036 138.118C281.02 138.67 280.865 139.145 280.573 139.543C280.281 139.941 279.867 140.213 279.331 140.359L281.511 143.83ZM282.732 143.83L283.304 135.622H284.339L285.411 138.63L286.86 142.807C287.42 141.264 287.932 139.872 288.395 138.63L289.515 135.622H290.55L291.245 143.83H290.49L290.209 140.578L289.881 136.608C289.393 137.964 288.91 139.287 288.431 140.578L287.299 143.623H286.41L285.338 140.578L283.974 136.693C283.901 137.919 283.816 139.214 283.718 140.578L283.487 143.83H282.732ZM300.243 135.914V136.754C300.048 136.624 299.792 136.515 299.475 136.425C299.159 136.336 298.85 136.291 298.55 136.291C298.006 136.291 297.572 136.421 297.247 136.681C296.922 136.933 296.76 137.27 296.76 137.692C296.76 137.911 296.8 138.106 296.881 138.277C296.971 138.447 297.117 138.605 297.32 138.752C297.523 138.89 297.697 138.999 297.844 139.08C297.998 139.153 298.229 139.255 298.538 139.385C298.822 139.507 299.037 139.604 299.183 139.677C299.329 139.742 299.516 139.848 299.743 139.994C299.971 140.14 300.141 140.286 300.255 140.432C300.377 140.57 300.482 140.753 300.572 140.98C300.669 141.199 300.718 141.443 300.718 141.711C300.718 142.425 300.478 142.973 299.999 143.355C299.52 143.729 298.907 143.915 298.16 143.915C297.316 143.915 296.597 143.737 296.005 143.379V142.539C296.248 142.726 296.561 142.88 296.942 143.002C297.332 143.124 297.726 143.185 298.124 143.185C298.7 143.185 299.147 143.059 299.463 142.807C299.788 142.555 299.95 142.194 299.95 141.723C299.95 141.366 299.829 141.078 299.585 140.858C299.341 140.631 298.988 140.416 298.526 140.213C298.461 140.18 298.318 140.12 298.099 140.03C297.88 139.933 297.726 139.864 297.636 139.823C297.547 139.783 297.409 139.714 297.222 139.616C297.036 139.519 296.898 139.434 296.808 139.36C296.727 139.287 296.622 139.19 296.492 139.068C296.362 138.946 296.268 138.825 296.212 138.703C296.155 138.581 296.102 138.439 296.053 138.277C296.005 138.106 295.98 137.927 295.98 137.741C295.98 137.051 296.228 136.515 296.723 136.133C297.218 135.743 297.823 135.549 298.538 135.549C299.22 135.549 299.788 135.67 300.243 135.914ZM303.243 140.042H304.68C305.321 140.042 305.829 139.872 306.202 139.531C306.584 139.19 306.775 138.764 306.775 138.252C306.775 137.651 306.58 137.176 306.19 136.827C305.8 136.47 305.252 136.291 304.546 136.291H303.243V140.042ZM302.488 135.622H304.461C305.419 135.622 306.17 135.865 306.714 136.352C307.266 136.831 307.542 137.465 307.542 138.252C307.542 138.934 307.274 139.515 306.738 139.994C306.21 140.473 305.496 140.712 304.595 140.712H303.243V143.83H302.488V135.622ZM310.392 140.883H313.571L313.388 140.359L312 136.255C311.894 136.58 311.419 137.952 310.575 140.371L310.392 140.883ZM314.57 143.83L313.79 141.553H310.161L309.369 143.83H308.553L311.452 135.622H312.548L315.385 143.83H314.57ZM324.141 136.316H320.524V139.446H323.715V140.14H320.524V143.83H319.769V135.622H324.141V136.316ZM326.423 139.823H327.75C328.351 139.823 328.814 139.657 329.139 139.324C329.463 138.991 329.626 138.577 329.626 138.082C329.626 136.888 328.952 136.291 327.604 136.291H326.423V139.823ZM330.856 143.83H329.955L327.896 140.493H327.665H326.423V143.83H325.668V135.622H327.519C328.477 135.622 329.191 135.841 329.662 136.279C330.141 136.71 330.381 137.323 330.381 138.118C330.365 138.67 330.21 139.145 329.918 139.543C329.626 139.941 329.212 140.213 328.676 140.359L330.856 143.83ZM333.465 140.883H336.644L336.461 140.359L335.073 136.255C334.967 136.58 334.492 137.952 333.648 140.371L333.465 140.883ZM337.642 143.83L336.863 141.553H333.234L332.442 143.83H331.626L334.525 135.622H335.621L338.458 143.83H337.642ZM339.831 143.83L340.404 135.622H341.439L342.51 138.63L343.96 142.807C344.52 141.264 345.031 139.872 345.494 138.63L346.615 135.622H347.65L348.344 143.83H347.589L347.309 140.578L346.98 136.608C346.493 137.964 346.01 139.287 345.531 140.578L344.398 143.623H343.509L342.437 140.578L341.073 136.693C341 137.919 340.915 139.214 340.818 140.578L340.586 143.83H339.831ZM350.97 143.136H354.661V143.83H350.215V135.622H354.587V136.316H350.97V139.385H354.161V140.079H350.97V143.136ZM360.473 135.743H361.362L362.275 138.678L363.639 143.111C364.086 141.033 364.406 139.559 364.601 138.691L365.283 135.622H366.038L364.175 143.83H363.14L362.324 141.236L360.935 136.73C360.627 137.85 360.193 139.352 359.632 141.236L358.865 143.83H357.83L355.699 135.622H356.49L357.257 138.666L358.366 143.063C358.91 141.122 359.328 139.657 359.62 138.666L360.473 135.743ZM367.131 139.689C367.131 138.398 367.452 137.371 368.093 136.608C368.742 135.837 369.619 135.451 370.724 135.451C371.86 135.451 372.745 135.833 373.378 136.596C374.012 137.351 374.328 138.382 374.328 139.689C374.328 140.988 374.008 142.019 373.366 142.783C372.725 143.546 371.852 143.927 370.748 143.927C369.66 143.927 368.783 143.542 368.117 142.77C367.46 141.999 367.131 140.972 367.131 139.689ZM367.91 139.689C367.91 140.769 368.166 141.626 368.678 142.259C369.197 142.884 369.887 143.197 370.748 143.197C371.641 143.197 372.331 142.888 372.818 142.271C373.305 141.646 373.549 140.785 373.549 139.689C373.549 138.585 373.301 137.724 372.806 137.107C372.319 136.49 371.625 136.182 370.724 136.182C369.847 136.182 369.157 136.494 368.653 137.12C368.158 137.737 367.91 138.593 367.91 139.689ZM376.672 139.823H377.999C378.6 139.823 379.063 139.657 379.388 139.324C379.712 138.991 379.875 138.577 379.875 138.082C379.875 136.888 379.201 136.291 377.853 136.291H376.672V139.823ZM381.105 143.83H380.203L378.145 140.493H377.914H376.672V143.83H375.917V135.622H377.768C378.726 135.622 379.44 135.841 379.911 136.279C380.39 136.71 380.63 137.323 380.63 138.118C380.614 138.67 380.459 139.145 380.167 139.543C379.875 139.941 379.461 140.213 378.925 140.359L381.105 143.83ZM382.387 143.83V135.622H383.142V143.83H382.387ZM384.323 139.787L387.733 143.83H386.734L383.361 139.787L386.613 135.622H387.562L384.323 139.787Z" fill="#707394"/>
</svg>
