<svg width="358" height="336" viewBox="0 0 358 336" fill="none" xmlns="http://www.w3.org/2000/svg">
<g clip-path="url(#clip0_5_2)">
<path d="M109.75 40.47L179.83 0L249.93 40.47L214.88 60.7L179.83 40.47L144.79 60.7L109.75 40.47Z" fill="#5180E2"/>
<path d="M109.75 40.47V121.4L144.79 141.64V101.17L179.84 121.4V80.94L109.75 40.47Z" fill="#4351D9"/>
<path d="M214.88 101.17L249.93 80.94V121.4L214.88 141.64V101.17Z" fill="#59CFCF"/>
<path d="M34.57 196.39H66.26V205.51H45.86V216.51H65.09V225.55H45.86V244.58H34.57V196.39Z" fill="#1E2142"/>
<path d="M122.25 242.23C118.47 240.16 115.53 237.24 113.43 233.48C111.34 229.72 110.29 225.4 110.29 220.53C110.29 215.66 111.32 211.27 113.39 207.51C115.46 203.75 118.39 200.83 122.17 198.76C125.95 196.69 130.34 195.65 135.34 195.65C140.34 195.65 144.65 196.68 148.44 198.72C152.22 200.77 155.15 203.65 157.22 207.37C159.29 211.09 160.32 215.38 160.32 220.25C160.32 225.12 159.29 229.6 157.22 233.38C155.15 237.17 152.22 240.11 148.44 242.21C144.66 244.31 140.29 245.36 135.34 245.36C130.39 245.36 126.03 244.32 122.24 242.25L122.25 242.23ZM145.3 231.88C147.8 229.03 149.05 225.25 149.05 220.52C149.05 217.43 148.48 214.7 147.35 212.31C146.21 209.92 144.6 208.09 142.51 206.81C140.42 205.53 138.03 204.89 135.36 204.89C132.69 204.89 130.3 205.53 128.21 206.81C126.12 208.09 124.5 209.92 123.37 212.31C122.23 214.7 121.67 217.44 121.67 220.52C121.67 223.6 122.24 226.33 123.37 228.7C124.51 231.06 126.11 232.9 128.18 234.2C130.25 235.5 132.65 236.15 135.37 236.15C139.51 236.15 142.83 234.73 145.32 231.88H145.3Z" fill="#1E2142"/>
<path d="M165.67 196.39H178.52L199.38 230.18V196.39H209.43V244.58H196.73L175.72 210.57V244.58H165.67V196.39V196.39Z" fill="#1E2142"/>
<path d="M228.83 205.51H214.66V196.39H254.22V205.51H240.2V244.58H228.83V205.51Z" fill="#1E2142"/>
<path d="M258.9 196.39H270.19V235.46H288.88V244.58H258.9V196.39Z" fill="#1E2142"/>
<path d="M293.57 196.39H325.11V205.51H304.71V215.13H323.94V223.96H304.71V235.46H325.11V244.58H293.57V196.39V196.39Z" fill="#1E2142"/>
<path d="M95.48 224.43L109.65 244.62C109.15 243.9 108.65 243.19 108.15 242.47C104.48 237.23 100.81 231.99 97.13 226.76" fill="#1E2142"/>
<path d="M88.16 229.42L98.13 244.61L88.03 229.2C88.07 229.27 88.12 229.34 88.16 229.41V229.42Z" fill="#1E2142"/>
<path d="M88.03 229.21C87.78 228.79 87.53 228.42 87.3 228.09L88.03 229.21Z" fill="#1E2142"/>
<path d="M95.48 224.43C98.96 223.66 101.67 222.03 103.62 219.55C105.57 217.07 106.54 214.04 106.54 210.47C106.54 206.27 105.09 202.93 102.18 200.45C99.27 197.97 94.86 196.63 88.94 196.43C87.38 196.38 84.45 196.36 80.14 196.36C75.83 196.36 72.98 196.39 71.42 196.43V244.62H82.24V225.81C83.74 225.81 84.87 226.02 85.63 226.43C86.14 226.71 86.7 227.27 87.3 228.1C87.54 228.43 87.78 228.8 88.03 229.22L98.13 244.63H109.65L95.48 224.44V224.43ZM82.24 217.77V204.89H87.69C90.29 204.89 92.26 205.4 93.61 206.41C94.96 207.42 95.63 208.89 95.63 210.82C95.63 212.94 94.86 214.63 93.33 215.88C91.8 217.13 89.71 217.76 87.06 217.76H82.23L82.24 217.77Z" fill="#1E2142"/>
<path d="M14.35 273.66V275.54H8.18V295.89H6.13V275.54H0V273.66H14.35Z" fill="#8D8D8E"/>
<path d="M19.36 272.57V282.04C20.37 279.95 22.14 278.91 24.67 278.91C26.27 278.91 27.56 279.41 28.53 280.39C29.5 281.38 29.98 282.65 29.98 284.22V295.9H27.97V284.85C27.97 283.55 27.64 282.56 26.98 281.88C26.32 281.2 25.45 280.86 24.37 280.86C23.01 280.86 21.83 281.38 20.84 282.43C19.85 283.47 19.36 284.89 19.36 286.67V295.91H17.35V272.59H19.36V272.57Z" fill="#8D8D8E"/>
<path d="M46.77 293.02V295.06C45.45 295.72 43.91 296.05 42.15 296.05C39.67 296.05 37.65 295.27 36.1 293.72C34.55 292.17 33.77 290.13 33.77 287.6C33.77 284.92 34.45 282.81 35.81 281.27C37.17 279.73 38.94 278.96 41.12 278.96C43.16 278.96 44.79 279.63 46 280.97C47.21 282.31 47.81 284.2 47.81 286.64C47.81 287.39 47.77 287.98 47.68 288.42H35.87C36.02 290.27 36.66 291.68 37.78 292.66C38.9 293.64 40.39 294.13 42.23 294.13C44.07 294.13 45.63 293.76 46.75 293.01L46.77 293.02ZM45.75 286.59V285.83C45.75 284.31 45.33 283.1 44.48 282.2C43.63 281.3 42.5 280.85 41.07 280.85C39.64 280.85 38.49 281.34 37.54 282.33C36.59 283.32 36.04 284.74 35.89 286.58H45.75V286.59Z" fill="#8D8D8E"/>
<path d="M71.87 293.02V295.06C70.55 295.72 69.01 296.05 67.25 296.05C64.77 296.05 62.75 295.27 61.2 293.72C59.65 292.17 58.87 290.13 58.87 287.6C58.87 284.92 59.55 282.81 60.91 281.27C62.27 279.73 64.04 278.96 66.22 278.96C68.26 278.96 69.89 279.63 71.1 280.97C72.31 282.31 72.91 284.2 72.91 286.64C72.91 287.39 72.87 287.98 72.78 288.42H60.97C61.12 290.27 61.76 291.68 62.88 292.66C64 293.64 65.49 294.13 67.33 294.13C69.17 294.13 70.73 293.76 71.85 293.01L71.87 293.02ZM70.85 286.59V285.83C70.85 284.31 70.43 283.1 69.58 282.2C68.73 281.3 67.6 280.85 66.17 280.85C64.74 280.85 63.59 281.34 62.64 282.33C61.69 283.32 61.14 284.74 60.99 286.58H70.85V286.59Z" fill="#8D8D8E"/>
<path d="M77.38 282.23V280.05C78.65 279.28 80.23 278.9 82.1 278.9C86.19 278.9 88.24 281.04 88.24 285.33V295.88H86.23V293.93C85.31 295.34 83.7 296.04 81.41 296.04C79.87 296.04 78.61 295.58 77.63 294.67C76.65 293.76 76.16 292.59 76.16 291.16C76.16 289.56 76.78 288.31 78.02 287.42C79.26 286.53 80.91 286.08 82.95 286.08H86.22V285.32C86.22 283.82 85.9 282.7 85.26 281.94C84.62 281.18 83.56 280.8 82.06 280.8C80.32 280.8 78.76 281.27 77.38 282.22V282.23ZM86.22 287.94H82.95C81.39 287.94 80.22 288.24 79.45 288.85C78.68 289.46 78.3 290.21 78.3 291.11C78.3 292.01 78.6 292.78 79.21 293.35C79.81 293.92 80.7 294.21 81.87 294.21C83.19 294.21 84.24 293.85 85.04 293.12C85.84 292.39 86.23 291.47 86.23 290.35V287.94H86.22Z" fill="#8D8D8E"/>
<path d="M101.78 279.76V281.77C100.75 281.18 99.35 280.88 97.59 280.88C96.62 280.88 95.86 281.11 95.3 281.56C94.74 282.01 94.46 282.6 94.46 283.32C94.46 283.76 94.54 284.14 94.71 284.47C94.88 284.8 95.16 285.1 95.57 285.38C95.98 285.66 96.32 285.86 96.61 285.99C96.9 286.12 97.36 286.32 98 286.58C99.54 287.2 100.72 287.87 101.55 288.61C102.38 289.35 102.79 290.34 102.79 291.59C102.79 292.98 102.31 294.07 101.35 294.87C100.39 295.67 99.08 296.07 97.41 296.07C95.39 296.07 93.76 295.74 92.53 295.08V293C94 293.84 95.59 294.25 97.28 294.25C98.4 294.25 99.25 294.02 99.84 293.56C100.42 293.1 100.71 292.49 100.71 291.75C100.71 290.87 100.41 290.19 99.8 289.71C99.2 289.23 98.2 288.71 96.81 288.16C95.47 287.63 94.4 287.02 93.61 286.31C92.82 285.61 92.42 284.64 92.42 283.41C92.42 282.07 92.92 281 93.9 280.19C94.89 279.39 96.13 278.99 97.63 278.99C99.43 278.99 100.82 279.24 101.79 279.75L101.78 279.76Z" fill="#8D8D8E"/>
<path d="M106.57 274.81C106.31 274.55 106.17 274.22 106.17 273.82C106.17 273.42 106.3 273.09 106.57 272.81C106.83 272.53 107.16 272.4 107.56 272.4C107.96 272.4 108.29 272.54 108.57 272.81C108.85 273.08 108.98 273.42 108.98 273.82C108.98 274.22 108.84 274.55 108.57 274.81C108.29 275.07 107.96 275.21 107.56 275.21C107.16 275.21 106.83 275.08 106.57 274.81ZM106.57 295.89V279.17H108.58V295.89H106.57Z" fill="#8D8D8E"/>
<path d="M125.7 293.02V295.06C124.38 295.72 122.84 296.05 121.08 296.05C118.6 296.05 116.58 295.27 115.03 293.72C113.48 292.17 112.7 290.13 112.7 287.6C112.7 284.92 113.38 282.81 114.74 281.27C116.1 279.73 117.87 278.96 120.05 278.96C122.09 278.96 123.72 279.63 124.93 280.97C126.14 282.31 126.74 284.2 126.74 286.64C126.74 287.39 126.7 287.98 126.61 288.42H114.8C114.95 290.27 115.59 291.68 116.71 292.66C117.83 293.64 119.32 294.13 121.16 294.13C123 294.13 124.56 293.76 125.68 293.01L125.7 293.02ZM124.68 286.59V285.83C124.68 284.31 124.26 283.1 123.41 282.2C122.56 281.3 121.43 280.85 120 280.85C118.57 280.85 117.42 281.34 116.47 282.33C115.52 283.32 114.97 284.74 114.82 286.58H124.68V286.59Z" fill="#8D8D8E"/>
<path d="M139.58 279.76V281.77C138.55 281.18 137.15 280.88 135.39 280.88C134.42 280.88 133.66 281.11 133.1 281.56C132.54 282.01 132.26 282.6 132.26 283.32C132.26 283.76 132.34 284.14 132.51 284.47C132.68 284.8 132.96 285.1 133.37 285.38C133.78 285.66 134.12 285.86 134.41 285.99C134.7 286.12 135.16 286.32 135.8 286.58C137.34 287.2 138.52 287.87 139.35 288.61C140.18 289.35 140.59 290.34 140.59 291.59C140.59 292.98 140.11 294.07 139.15 294.87C138.19 295.67 136.88 296.07 135.21 296.07C133.19 296.07 131.56 295.74 130.33 295.08V293C131.8 293.84 133.39 294.25 135.08 294.25C136.2 294.25 137.05 294.02 137.64 293.56C138.22 293.1 138.51 292.49 138.51 291.75C138.51 290.87 138.21 290.19 137.6 289.71C137 289.23 136 288.71 134.61 288.16C133.27 287.63 132.2 287.02 131.41 286.31C130.62 285.61 130.22 284.64 130.22 283.41C130.22 282.07 130.72 281 131.7 280.19C132.69 279.39 133.93 278.99 135.43 278.99C137.23 278.99 138.62 279.24 139.59 279.75L139.58 279.76Z" fill="#8D8D8E"/>
<path d="M147.33 280.88V291.27C147.33 293.18 148.22 294.14 150 294.14C150.88 294.14 151.63 293.89 152.24 293.38V295.42C151.6 295.84 150.87 296.05 150.03 296.05C146.86 296.05 145.28 294.42 145.28 291.17V280.88H142.54V279.17H145.28V274.98H147.32V279.17H152.1V280.88H147.32H147.33Z" fill="#8D8D8E"/>
<path d="M166.23 279.17V281.91C167.18 279.91 168.74 278.91 170.91 278.91C173.59 278.91 175.24 280.01 175.86 282.21C176.89 280.01 178.54 278.91 180.81 278.91C182.57 278.91 183.88 279.4 184.73 280.38C185.58 281.36 186.02 282.64 186.02 284.22V295.9H184.01V284.85C184.01 282.19 182.84 280.86 180.51 280.86C179.37 280.86 178.35 281.39 177.46 282.44C176.57 283.49 176.12 284.9 176.12 286.66V295.9H174.11V284.85C174.11 282.19 172.94 280.86 170.61 280.86C169.47 280.86 168.45 281.39 167.56 282.44C166.67 283.49 166.22 284.9 166.22 286.66V295.9H164.21V279.18H166.22L166.23 279.17Z" fill="#8D8D8E"/>
<path d="M201.26 279.17H203.27V295.89H201.26V292.89C200.38 295.05 198.61 296.12 195.95 296.12C194.32 296.12 193.03 295.63 192.07 294.65C191.11 293.67 190.64 292.38 190.64 290.77V279.16H192.65V290.21C192.65 291.49 192.99 292.46 193.66 293.15C194.33 293.83 195.21 294.17 196.31 294.17C197.78 294.17 198.98 293.64 199.89 292.59C200.8 291.53 201.26 290.16 201.26 288.47V279.17V279.17Z" fill="#8D8D8E"/>
<path d="M208.42 295.89V272.57H210.43V295.89H208.42Z" fill="#8D8D8E"/>
<path d="M218.68 280.88V291.27C218.68 293.18 219.57 294.14 221.35 294.14C222.23 294.14 222.98 293.89 223.59 293.38V295.42C222.95 295.84 222.22 296.05 221.38 296.05C218.21 296.05 216.63 294.42 216.63 291.17V280.88H213.89V279.17H216.63V274.98H218.67V279.17H223.45V280.88H218.67H218.68Z" fill="#8D8D8E"/>
<path d="M227.71 274.81C227.45 274.55 227.31 274.22 227.31 273.82C227.31 273.42 227.44 273.09 227.71 272.81C227.97 272.53 228.3 272.4 228.7 272.4C229.1 272.4 229.43 272.54 229.71 272.81C229.99 273.08 230.12 273.42 230.12 273.82C230.12 274.22 229.98 274.55 229.71 274.81C229.44 275.07 229.1 275.21 228.7 275.21C228.3 275.21 227.97 275.08 227.71 274.81ZM227.71 295.89V279.17H229.72V295.89H227.71Z" fill="#8D8D8E"/>
<path d="M244.86 279.17V281.61C246.03 279.81 247.75 278.9 250.04 278.9C252.33 278.9 254.03 279.72 255.28 281.36C256.53 283 257.16 284.99 257.16 287.35C257.16 289.94 256.49 292.06 255.15 293.7C253.81 295.34 252.08 296.16 249.97 296.16C247.86 296.16 246.09 295.24 244.86 293.39V302.49H242.85V279.17H244.86V279.17ZM249.91 294.24C251.41 294.24 252.64 293.64 253.6 292.44C254.56 291.24 255.05 289.53 255.05 287.31C255.05 285.4 254.58 283.84 253.65 282.63C252.72 281.42 251.53 280.82 250.1 280.82C248.67 280.82 247.44 281.34 246.41 282.39C245.38 283.43 244.86 285.18 244.86 287.62C244.86 288.85 245.03 289.92 245.37 290.84C245.71 291.75 246.15 292.44 246.69 292.92C247.23 293.39 247.77 293.73 248.31 293.94C248.85 294.15 249.38 294.25 249.91 294.25V294.24Z" fill="#8D8D8E"/>
<path d="M261.29 295.89V272.57H263.3V295.89H261.29Z" fill="#8D8D8E"/>
<path d="M268.81 282.23V280.05C270.09 279.28 271.66 278.9 273.53 278.9C277.62 278.9 279.66 281.04 279.66 285.33V295.88H277.65V293.93C276.73 295.34 275.12 296.04 272.83 296.04C271.29 296.04 270.03 295.58 269.05 294.67C268.07 293.76 267.58 292.59 267.58 291.16C267.58 289.56 268.2 288.31 269.44 287.42C270.68 286.53 272.33 286.08 274.37 286.08H277.64V285.32C277.64 283.82 277.32 282.7 276.68 281.94C276.04 281.18 274.97 280.8 273.48 280.8C271.74 280.8 270.18 281.27 268.8 282.22L268.81 282.23ZM277.65 287.94H274.38C272.82 287.94 271.65 288.24 270.88 288.85C270.11 289.46 269.73 290.21 269.73 291.11C269.73 292.01 270.03 292.78 270.64 293.35C271.24 293.92 272.13 294.21 273.3 294.21C274.62 294.21 275.68 293.85 276.47 293.12C277.26 292.39 277.66 291.47 277.66 290.35V287.94H277.65Z" fill="#8D8D8E"/>
<path d="M287.58 280.88V291.27C287.58 293.18 288.47 294.14 290.25 294.14C291.13 294.14 291.88 293.89 292.49 293.38V295.42C291.85 295.84 291.12 296.05 290.28 296.05C287.11 296.05 285.53 294.42 285.53 291.17V280.88H282.79V279.17H285.53V274.98H287.57V279.17H292.35V280.88H287.57H287.58Z" fill="#8D8D8E"/>
<path d="M303.9 272.6V274.58C303.44 274.4 302.95 274.32 302.45 274.32C301.79 274.32 301.22 274.58 300.75 275.1C300.28 275.62 300.04 276.39 300.04 277.43V279.18H303.87V280.89H300.04V295.9H298.03V280.89H294.96V279.18H298.03V277.4C298.03 275.88 298.43 274.67 299.22 273.77C300.01 272.87 301.12 272.42 302.55 272.42C302.97 272.42 303.42 272.49 303.9 272.62V272.6Z" fill="#8D8D8E"/>
<path d="M313.86 296.19C311.51 296.19 309.64 295.38 308.25 293.75C306.86 292.12 306.17 290.08 306.17 287.62C306.17 285.16 306.88 283.12 308.31 281.45C309.74 279.78 311.59 278.94 313.85 278.94C316.34 278.94 318.26 279.76 319.64 281.4C321.01 283.04 321.7 285.11 321.7 287.62C321.7 290.13 321 292.16 319.61 293.77C318.21 295.39 316.3 296.19 313.85 296.19H313.86ZM313.86 280.85C312.12 280.85 310.76 281.51 309.77 282.83C308.78 284.15 308.29 285.74 308.29 287.61C308.29 289.48 308.8 291 309.82 292.31C310.84 293.62 312.19 294.27 313.86 294.27C315.69 294.27 317.1 293.63 318.1 292.34C319.1 291.05 319.6 289.48 319.6 287.61C319.6 285.74 319.13 284.06 318.18 282.78C317.23 281.49 315.79 280.85 313.86 280.85V280.85Z" fill="#8D8D8E"/>
<path d="M327.72 279.17V282.01C328.64 279.99 330.2 278.98 332.4 278.98C332.55 278.98 332.83 279 333.23 279.05V281.09C332.79 280.96 332.35 280.89 331.91 280.89C330.72 280.89 329.73 281.48 328.92 282.65C328.12 283.83 327.72 285.13 327.72 286.56V295.89H325.71V279.17H327.72V279.17Z" fill="#8D8D8E"/>
<path d="M338.07 279.17V281.91C339.02 279.91 340.58 278.91 342.75 278.91C345.43 278.91 347.08 280.01 347.7 282.21C348.73 280.01 350.38 278.91 352.65 278.91C354.41 278.91 355.72 279.4 356.57 280.38C357.42 281.36 357.86 282.64 357.86 284.22V295.9H355.85V284.85C355.85 282.19 354.68 280.86 352.35 280.86C351.21 280.86 350.19 281.39 349.3 282.44C348.41 283.5 347.97 284.9 347.97 286.66V295.9H345.96V284.85C345.96 282.19 344.79 280.86 342.46 280.86C341.32 280.86 340.3 281.39 339.41 282.44C338.52 283.49 338.07 284.9 338.07 286.66V295.9H336.06V279.18H338.07V279.17Z" fill="#8D8D8E"/>
<path d="M86.23 314.03V316.31C85.7 315.96 85.01 315.66 84.15 315.42C83.29 315.18 82.46 315.06 81.64 315.06C80.17 315.06 78.99 315.41 78.11 316.1C77.23 316.79 76.79 317.71 76.79 318.85C76.79 319.44 76.91 319.97 77.14 320.43C77.37 320.89 77.76 321.31 78.31 321.7C78.86 322.08 79.34 322.38 79.74 322.59C80.15 322.8 80.77 323.08 81.6 323.43C82.37 323.76 82.95 324.02 83.35 324.21C83.75 324.4 84.25 324.69 84.87 325.08C85.49 325.48 85.95 325.87 86.27 326.25C86.59 326.63 86.87 327.13 87.13 327.73C87.38 328.33 87.51 329 87.51 329.73C87.51 331.67 86.86 333.14 85.56 334.17C84.26 335.2 82.6 335.7 80.58 335.7C78.29 335.7 76.35 335.22 74.74 334.25V331.97C75.4 332.48 76.25 332.89 77.3 333.22C78.34 333.55 79.41 333.72 80.48 333.72C82.04 333.72 83.26 333.38 84.12 332.7C84.98 332.02 85.42 331.04 85.42 329.76C85.42 328.79 85.09 328.01 84.43 327.4C83.77 326.8 82.81 326.22 81.56 325.67C81.38 325.58 81 325.41 80.41 325.16C79.82 324.91 79.4 324.73 79.16 324.62C78.92 324.51 78.54 324.32 78.04 324.06C77.54 323.8 77.17 323.56 76.94 323.37C76.71 323.17 76.42 322.91 76.07 322.58C75.72 322.25 75.47 321.92 75.31 321.59C75.16 321.26 75.01 320.87 74.88 320.42C74.75 319.97 74.68 319.49 74.68 318.99C74.68 317.12 75.35 315.66 76.69 314.62C78.03 313.58 79.67 313.05 81.6 313.05C83.53 313.05 84.99 313.38 86.22 314.04L86.23 314.03Z" fill="#8D8D8E"/>
<path d="M92.3 313.24H97.64C100.23 313.24 102.27 313.89 103.76 315.2C105.24 316.51 105.99 318.23 105.99 320.36C105.99 322.21 105.27 323.78 103.83 325.08C102.39 326.38 100.45 327.03 98.01 327.03H94.35V335.47H92.31V313.24H92.3ZM94.34 325.21H98.23C99.97 325.21 101.35 324.75 102.37 323.83C103.39 322.91 103.9 321.75 103.9 320.37C103.9 318.74 103.37 317.45 102.32 316.49C101.26 315.53 99.78 315.05 97.87 315.05H94.34V325.21V325.21Z" fill="#8D8D8E"/>
<path d="M125.02 335.47L122.91 329.3H113.08L110.94 335.47H108.73L116.58 313.24H119.55L127.24 335.47H125.03H125.02ZM113.71 327.49H122.32L121.83 326.07L118.07 314.95C117.78 315.83 116.5 319.55 114.21 326.1L113.72 327.49H113.71Z" fill="#8D8D8E"/>
<path d="M146.39 312.18V314.16C145.93 313.98 145.44 313.9 144.94 313.9C144.28 313.9 143.71 314.16 143.24 314.68C142.77 315.2 142.53 315.97 142.53 317.01V318.76H146.36V320.47H142.53V335.48H140.52V320.47H137.45V318.76H140.52V316.98C140.52 315.46 140.92 314.25 141.71 313.35C142.5 312.45 143.61 312 145.04 312C145.46 312 145.91 312.07 146.39 312.2V312.18Z" fill="#8D8D8E"/>
<path d="M151.7 318.75V321.59C152.62 319.57 154.18 318.56 156.38 318.56C156.53 318.56 156.81 318.58 157.2 318.63V320.67C156.76 320.54 156.32 320.47 155.88 320.47C154.69 320.47 153.7 321.06 152.9 322.23C152.1 323.41 151.7 324.71 151.7 326.14V335.47H149.69V318.75H151.7V318.75Z" fill="#8D8D8E"/>
<path d="M160.41 321.81V319.63C161.68 318.86 163.26 318.48 165.13 318.48C169.22 318.48 171.27 320.62 171.27 324.91V335.46H169.26V333.51C168.34 334.92 166.73 335.62 164.44 335.62C162.9 335.62 161.64 335.16 160.66 334.25C159.68 333.34 159.19 332.17 159.19 330.74C159.19 329.14 159.81 327.89 161.05 327C162.29 326.11 163.94 325.66 165.98 325.66H169.25V324.9C169.25 323.4 168.93 322.28 168.29 321.52C167.65 320.76 166.59 320.38 165.09 320.38C163.35 320.38 161.79 320.85 160.41 321.8V321.81ZM169.25 327.52H165.98C164.42 327.52 163.25 327.82 162.48 328.43C161.71 329.04 161.33 329.79 161.33 330.69C161.33 331.59 161.63 332.36 162.24 332.93C162.84 333.5 163.73 333.79 164.9 333.79C166.22 333.79 167.27 333.43 168.07 332.7C168.87 331.97 169.26 331.05 169.26 329.93V327.52H169.25Z" fill="#8D8D8E"/>
<path d="M178.09 318.75V321.49C179.04 319.49 180.6 318.49 182.77 318.49C185.45 318.49 187.1 319.59 187.72 321.79C188.75 319.59 190.4 318.49 192.67 318.49C194.43 318.49 195.74 318.98 196.59 319.96C197.44 320.94 197.88 322.22 197.88 323.8V335.48H195.87V324.43C195.87 321.77 194.7 320.44 192.37 320.44C191.23 320.44 190.21 320.97 189.32 322.02C188.43 323.08 187.99 324.48 187.99 326.24V335.48H185.98V324.43C185.98 321.77 184.81 320.44 182.48 320.44C181.34 320.44 180.32 320.97 179.43 322.02C178.54 323.07 178.09 324.48 178.09 326.24V335.48H176.08V318.76H178.09V318.75Z" fill="#8D8D8E"/>
<path d="M214.67 332.6V334.64C213.35 335.3 211.81 335.63 210.05 335.63C207.56 335.63 205.55 334.85 204 333.3C202.45 331.75 201.67 329.71 201.67 327.18C201.67 324.5 202.35 322.39 203.71 320.85C205.07 319.31 206.84 318.54 209.02 318.54C211.06 318.54 212.69 319.21 213.9 320.55C215.11 321.89 215.71 323.78 215.71 326.22C215.71 326.97 215.67 327.56 215.58 328H203.77C203.92 329.85 204.56 331.26 205.68 332.24C206.8 333.22 208.29 333.71 210.13 333.71C211.97 333.71 213.53 333.34 214.65 332.59L214.67 332.6ZM213.65 326.17V325.41C213.65 323.89 213.23 322.68 212.38 321.78C211.53 320.88 210.39 320.43 208.97 320.43C207.55 320.43 206.39 320.92 205.44 321.91C204.49 322.9 203.94 324.32 203.79 326.16H213.65V326.17Z" fill="#8D8D8E"/>
<path d="M223.41 335.47L218.3 318.75H220.51L222.16 324.29C222.78 326.36 223.3 328.16 223.73 329.68C224.16 331.2 224.44 332.21 224.57 332.7L224.74 333.46C225.14 332.03 226.02 328.96 227.38 324.26L228.96 318.75H231.34L232.99 324.26L235.7 333.53C236.05 332.23 236.99 329.14 238.5 324.26L240.22 318.75H242.33L237.05 335.47H234.35L232.73 329.99L230.16 321.08C229.79 322.47 228.96 325.43 227.69 329.99L226.14 335.47H223.43H223.41Z" fill="#8D8D8E"/>
<path d="M252.47 335.77C250.12 335.77 248.25 334.96 246.86 333.33C245.47 331.7 244.78 329.66 244.78 327.2C244.78 324.74 245.49 322.7 246.92 321.03C248.35 319.36 250.2 318.52 252.46 318.52C254.95 318.52 256.87 319.34 258.25 320.98C259.62 322.62 260.31 324.69 260.31 327.2C260.31 329.71 259.61 331.74 258.22 333.35C256.82 334.97 254.91 335.77 252.46 335.77H252.47ZM252.47 320.43C250.73 320.43 249.37 321.09 248.38 322.41C247.39 323.73 246.9 325.32 246.9 327.19C246.9 329.06 247.41 330.58 248.43 331.89C249.45 333.2 250.8 333.85 252.47 333.85C254.3 333.85 255.71 333.21 256.71 331.92C257.71 330.63 258.21 329.06 258.21 327.19C258.21 325.32 257.74 323.64 256.79 322.36C255.84 321.07 254.4 320.43 252.47 320.43V320.43Z" fill="#8D8D8E"/>
<path d="M266.32 318.75V321.59C267.24 319.57 268.8 318.56 271 318.56C271.15 318.56 271.43 318.58 271.83 318.63V320.67C271.39 320.54 270.95 320.47 270.51 320.47C269.32 320.47 268.33 321.06 267.52 322.23C266.72 323.41 266.32 324.71 266.32 326.14V335.47H264.31V318.75H266.32Z" fill="#8D8D8E"/>
<path d="M274.66 335.47V312.15H276.67V335.47H274.66ZM279.61 326.7L286.67 335.47H284.16L277.17 326.7L283.96 318.75H286.43L279.6 326.7H279.61Z" fill="#8D8D8E"/>
</g>
<defs>
<clipPath id="clip0_5_2">
<rect width="357.86" height="335.77" fill="white"/>
</clipPath>
</defs>
</svg>
